<?xml version="1.0" encoding="utf-8"?>
<!-- Generator: Adobe Illustrator 16.0.3, SVG Export Plug-In . SVG Version: 6.00 Build 0)  -->
<!DOCTYPE svg PUBLIC "-//W3C//DTD SVG 1.1//EN" "http://www.w3.org/Graphics/SVG/1.1/DTD/svg11.dtd">
<svg version="1.1" id="Layer_1" xmlns="http://www.w3.org/2000/svg" xmlns:xlink="http://www.w3.org/1999/xlink" x="0px" y="0px"
	 width="123.787px" height="90.364px" viewBox="0 0 123.787 90.364" enable-background="new 0 0 123.787 90.364"
	 xml:space="preserve">
<g>
	<path fill="#0480B7" d="M29.536,1.63v78.261c0,1.171,0.417,2.069,1.254,2.696c1.212,0.878,2.696,1.317,4.452,1.317h12.166v4.703
		H2.258v-4.703h10.409c2.174,0,3.783-0.512,4.829-1.537c1.044-1.023,1.567-2.393,1.567-4.107V19.126
		c0-1.212-0.481-2.236-1.442-3.073c-0.962-0.835-2.194-1.254-3.699-1.254H0v-4.327c6.532-0.835,11.829-1.954,15.892-3.355
		c4.063-1.4,7.643-3.229,10.742-5.487H29.536z"/>
	<path fill="#0480B7" d="M111.245,43.583c-2.718,4.098-5.895,7.18-9.532,9.25c-3.637,2.07-7.713,3.104-12.228,3.104
		c-6.271,0-11.968-2.195-17.089-6.584s-7.682-10.849-7.682-19.377c0-8.318,2.832-15.395,8.497-21.227
		C78.876,2.916,85.639,0,93.498,0c8.654,0,15.865,3.596,21.635,10.786c5.77,7.191,8.654,17.287,8.654,30.289
		c0,10.786-1.6,19.89-4.798,27.31c-3.198,7.421-7.431,12.939-12.698,16.555c-5.268,3.617-11.204,5.425-17.81,5.425
		c-6.396,0-11.403-1.411-15.019-4.233c-3.616-2.821-5.424-6.197-5.424-10.127c0-2.592,0.744-4.682,2.234-6.271
		c1.49-1.588,3.369-2.383,5.636-2.383c2.057,0,3.799,0.69,5.227,2.069c1.427,1.38,2.141,3.032,2.141,4.954
		c0,1.38-0.661,2.906-1.982,4.578c-0.811,1.045-1.215,1.943-1.215,2.696c0,1.171,0.689,2.185,2.069,3.041
		c1.379,0.857,3.595,1.286,6.646,1.286c4.348,0,8.173-1.201,11.476-3.606c3.303-2.403,5.979-6.354,8.027-11.852
		c2.048-5.497,3.072-12.614,3.072-21.353L111.245,43.583z M93.687,4.515c-4.683,0-8.528,1.955-11.538,5.863
		c-3.011,3.909-4.516,9.793-4.516,17.652c0,7.191,1.505,12.553,4.516,16.085c3.01,3.533,6.938,5.299,11.789,5.299
		c4.807,0,8.852-1.902,12.134-5.707c3.281-3.804,4.923-9.134,4.923-15.991c0-7.107-1.704-12.75-5.11-16.932
		C102.476,6.606,98.41,4.515,93.687,4.515z"/>
</g>
</svg>
