<?xml version="1.0" encoding="utf-8"?>
<!-- Generator: Adobe Illustrator 16.0.3, SVG Export Plug-In . SVG Version: 6.00 Build 0)  -->
<!DOCTYPE svg PUBLIC "-//W3C//DTD SVG 1.1//EN" "http://www.w3.org/Graphics/SVG/1.1/DTD/svg11.dtd">
<svg version="1.1" id="Layer_1" xmlns="http://www.w3.org/2000/svg" xmlns:xlink="http://www.w3.org/1999/xlink" x="0px" y="0px"
	 width="129.618px" height="88.608px" viewBox="0 0 129.618 88.608" enable-background="new 0 0 129.618 88.608"
	 xml:space="preserve">
<g>
	<path fill="#0480B7" d="M14.23,74.875c-1.921,2.467,7.54,3.7,28.382,3.7c3.125,0,5.355-0.815,6.69-2.446
		c1.333-1.63,2.854-6.146,4.563-13.545h4.327l-2.036,26.024H0v-3.387l18.248-20.757C28.406,53.428,34.51,46.489,36.559,43.645
		c2.926-4.054,5.058-7.974,6.396-11.758c1.337-3.783,2.007-7.221,2.007-10.315c0-5.142-1.422-9.187-4.265-12.134
		s-6.794-4.421-11.852-4.421c-5.687,0-10.326,1.359-13.922,4.076c-3.596,2.718-5.393,5.603-5.393,8.654
		c0,1.045,0.271,1.84,0.815,2.383c0.501,0.544,1.588,1.025,3.261,1.442c4.222,1.003,6.333,3.471,6.333,7.399
		c0,2.132-0.711,3.899-2.132,5.299c-1.422,1.401-3.24,2.101-5.455,2.101c-2.551,0-4.788-1.181-6.71-3.543
		c-1.924-2.361-2.885-5.445-2.885-9.25c0-4.264,1.098-8.142,3.292-11.633c2.195-3.49,5.508-6.354,9.939-8.591
		C20.421,1.119,25.187,0,30.288,0c5.058,0,9.751,1.087,14.078,3.261c4.326,2.174,7.577,5.027,9.751,8.56
		c2.173,3.533,3.261,7.39,3.261,11.569c0,2.885-0.543,5.812-1.628,8.779c-1.086,2.969-2.673,5.749-4.76,8.34
		c-3.591,4.474-7.286,8.299-11.084,11.476L23.373,65.907C19.198,69.418,16.151,72.409,14.23,74.875z"/>
	<path fill="#0480B7" d="M85.655,74.875c-1.921,2.467,7.54,3.7,28.382,3.7c3.125,0,5.355-0.815,6.69-2.446
		c1.333-1.63,2.854-6.146,4.563-13.545h4.327l-2.036,26.024H71.425v-3.387l18.248-20.757c10.158-11.037,16.262-17.976,18.311-20.819
		c2.926-4.054,5.058-7.974,6.396-11.758c1.337-3.783,2.007-7.221,2.007-10.315c0-5.142-1.422-9.187-4.265-12.134
		s-6.794-4.421-11.852-4.421c-5.687,0-10.326,1.359-13.922,4.076c-3.596,2.718-5.393,5.603-5.393,8.654
		c0,1.045,0.271,1.84,0.815,2.383c0.501,0.544,1.588,1.025,3.261,1.442c4.222,1.003,6.333,3.471,6.333,7.399
		c0,2.132-0.711,3.899-2.132,5.299c-1.422,1.401-3.24,2.101-5.455,2.101c-2.551,0-4.788-1.181-6.71-3.543
		c-1.924-2.361-2.885-5.445-2.885-9.25c0-4.264,1.098-8.142,3.292-11.633c2.195-3.49,5.508-6.354,9.939-8.591
		C91.846,1.119,96.611,0,101.713,0c5.058,0,9.751,1.087,14.078,3.261c4.326,2.174,7.577,5.027,9.751,8.56
		c2.173,3.533,3.261,7.39,3.261,11.569c0,2.885-0.543,5.812-1.628,8.779c-1.086,2.969-2.673,5.749-4.76,8.34
		c-3.591,4.474-7.286,8.299-11.084,11.476L94.798,65.907C90.623,69.418,87.576,72.409,85.655,74.875z"/>
</g>
</svg>
